<svg width="20" height="20" viewBox="0 0 20 20" fill="none" xmlns="http://www.w3.org/2000/svg">
<g clip-path="url(#clip0)">
<path d="M14.0347 6.42871H5.96545L10.0001 9.88696L14.0347 6.42871Z" fill="#003580"/>
<path d="M10 10.7141C9.91476 10.7141 9.83228 10.6836 9.76758 10.628L5.35718 6.84766V13.5713H14.6429V6.84766L10.2325 10.628C10.1678 10.6836 10.0853 10.7141 10 10.7141Z" fill="#003580"/>
<path d="M10.2232 0.0221483C8.04154 0.0221492 5.49996 1.31504e-05 3.99996 1.31404e-05C1.215 1.31218e-05 1.82698e-05 2.50001 -6.38701e-06 3.99985C-0.0106493 4.61753 -2.9156e-05 9.28307 -2.9156e-05 9.99983C-2.9156e-05 11.1205 -0.016443 15.1159 -2.9156e-05 16C0 18.5 2 20 4 20C6.06285 20 14.7003 20.0621 16 20C18.5 20 19.9863 17.866 20 16C20.0045 15.3821 20 10.7166 20 9.99983C20 9.28505 20.0094 4.61915 20 3.99967C19.9519 0.828541 17.3155 -0.000361419 16 0C14.6845 0.000361419 12.1815 0.0221475 10.2232 0.0221483ZM15.3571 13.9284C15.3571 14.1256 15.1972 14.2855 15 14.2855H4.99997C4.80274 14.2855 4.64283 14.1256 4.64283 13.9284V6.07126C4.64283 5.87403 4.80274 5.71411 4.99997 5.71411H15C15.1972 5.71411 15.3571 5.87403 15.3571 6.07126V13.9284Z" fill="#003580"/>
</g>
<defs>
<clipPath id="clip0">
<rect width="20" height="20" fill="white"/>
</clipPath>
</defs>
</svg>
