<svg width="20" height="20" viewBox="0 0 20 20" fill="none" xmlns="http://www.w3.org/2000/svg">
<g clip-path="url(#clip0)">
<path d="M20 4V15.8249C20 19 17.5 20 16 20H4C1.5 20 0 18 0 16V4C0 1.5 2 0 4 0H16C18.5 0 20 2 20 4Z" fill="#003580"/>
<path d="M15.6162 4.38753C16.5306 4.10174 17.1428 4.5099 17.1428 5.12215C17.1428 5.12215 14.7999 15.2041 14.3917 16.0204C13.9835 16.8367 13.3713 16.4286 13.3713 16.4286L9.9019 13.9796C9.9019 13.9796 9.28966 14.5918 8.47333 15.4081C7.65701 16.2245 7.24884 15.4081 7.24884 15.4081L5.82027 11.5306C5.82027 11.5306 3.54668 11.2731 2.75905 10.5102C2.04076 9.81602 2.653 9.40786 2.653 9.40786L15.6162 4.38753ZM9.59178 11.2448L15.102 5.93847L6.93872 10.6326L8.16321 13.8979L9.59178 11.2448Z" fill="#003580"/>
<path d="M16.1808 3.88623C15.9625 3.88623 15.7316 3.92378 15.4945 3.9979C15.4859 4.0006 15.4773 4.00362 15.4689 4.00688L2.50571 9.02721C2.47796 9.03795 2.45147 9.0517 2.42669 9.06823C2.38783 9.09415 2.04575 9.33427 2.00551 9.77978C1.97404 10.1274 2.1322 10.4719 2.47518 10.8034C3.20065 11.5061 4.8651 11.8083 5.52269 11.9033L6.86591 15.5493C6.87114 15.5634 6.8771 15.5773 6.88383 15.5907C6.99318 15.8093 7.30767 16.1791 7.7931 16.1791C8.11596 16.1791 8.44191 16.0168 8.762 15.6968L9.94747 14.5113L13.136 16.7621C13.1389 16.7642 13.1419 16.7662 13.1449 16.7682C13.1877 16.7967 13.4166 16.9388 13.7285 16.9388C13.9751 16.9388 14.4367 16.8432 14.7568 16.203C15.1745 15.3676 17.2995 6.25129 17.5404 5.2146C17.5475 5.18431 17.551 5.15329 17.551 5.12219C17.5511 4.40599 16.9748 3.88623 16.1808 3.88623ZM14.0267 15.8378C13.9618 15.9677 13.8574 16.1224 13.7285 16.1224C13.672 16.1224 13.6169 16.0987 13.595 16.0868L10.1373 13.6461C9.97498 13.5315 9.75379 13.5504 9.6133 13.6909L8.18473 15.1195C7.95902 15.3452 7.82791 15.3628 7.79306 15.3628C7.71208 15.3628 7.64302 15.2694 7.61951 15.2335L6.2033 11.3895C6.14996 11.2448 6.01955 11.1424 5.86636 11.125C5.27191 11.0573 3.60587 10.7621 3.04269 10.2166C2.82681 10.008 2.81624 9.88831 2.81816 9.85656C2.82049 9.81831 2.84518 9.78452 2.86461 9.76358L15.7504 4.77321C15.904 4.72631 16.0487 4.70256 16.1807 4.70256C16.306 4.70256 16.705 4.73068 16.7331 5.08203C15.795 9.11693 14.3091 15.273 14.0267 15.8378Z" fill="white"/>
<path d="M14.8987 5.5846L6.73541 10.2787C6.56215 10.3783 6.48652 10.5887 6.55668 10.7758L7.78117 14.0411C7.83737 14.1911 7.97602 14.2942 8.13578 14.3051C8.14508 14.3057 8.15427 14.306 8.16345 14.306C8.3128 14.306 8.45125 14.2241 8.52276 14.0913L9.92108 11.4945L15.3853 6.23244C15.5338 6.08946 15.5523 5.85815 15.4285 5.69329C15.3047 5.52848 15.0773 5.4819 14.8987 5.5846ZM9.3088 10.9508C9.27835 10.9801 9.25259 11.014 9.23255 11.0513L8.22998 12.9131L7.44268 10.8137L12.428 7.94697L9.3088 10.9508Z" fill="white"/>
</g>
<defs>
<clipPath id="clip0">
<rect width="20" height="20" fill="white"/>
</clipPath>
</defs>
</svg>
