<svg width="20" height="20" viewBox="0 0 20 20" fill="none" xmlns="http://www.w3.org/2000/svg">
<g clip-path="url(#clip0)">
<rect width="20" height="20" rx="4" fill="#C4C4C4"/>
<path d="M16 20H4C2 20 0 18.5 0 16V4C0 1 2.5 0 4 0H16C19 0 20 2.5 20 4V16C20 18.5 18 20 16 20Z" fill="#003580"/>
<path d="M3.68745 6.36719H5.38249C5.64632 6.36719 5.87948 6.53793 5.95925 6.78945C6.12941 7.3259 6.46698 8.28215 6.94015 9.11461C7.32441 9.79062 7.79034 10.3577 8.1339 10.7331C8.30616 10.9213 8.61984 10.7988 8.61984 10.5436V8.09746C8.61984 7.73859 8.50726 7.38875 8.29796 7.09727L8.1321 6.86625C8.09362 6.81266 8.07296 6.74836 8.07296 6.68242C8.07296 6.50832 8.21409 6.36719 8.3882 6.36719H10.7585C10.9725 6.36719 11.1459 6.54063 11.1459 6.75457V9.89051C11.1459 10.0941 11.3564 10.2294 11.5416 10.1449L11.7028 10.0713C11.7306 10.0586 11.7556 10.0407 11.7765 10.0185C12.5914 9.1532 13.252 8.15469 13.7297 7.06633L13.9069 6.66242C13.9857 6.48309 14.163 6.36738 14.3589 6.36758L16.0325 6.36953C16.3464 6.36988 16.5468 6.70461 16.3988 6.98148L15.6256 8.42824C15.5256 8.61539 15.4143 8.79629 15.2925 8.96996L14.3876 10.2593C14.227 10.4882 14.258 10.8002 14.4605 10.993L15.1231 11.6241C15.636 12.1124 16.083 12.6656 16.4527 13.2695L16.651 13.5933C16.836 13.8956 16.6185 14.2839 16.2641 14.2839H14.8192C14.5269 14.2839 14.2471 14.1657 14.0433 13.9561L12.5985 12.4705C12.3124 12.1763 11.9462 11.9725 11.5453 11.8845C11.3401 11.8395 11.1459 11.9957 11.1459 12.2057V13.6654C11.1459 14.007 10.869 14.2838 10.5274 14.2838C9.31554 14.2838 8.13738 13.8849 7.1748 13.1487C5.46941 11.8443 4.23292 10.0221 3.6507 7.95559L3.33452 6.83328C3.26859 6.59934 3.44441 6.36719 3.68745 6.36719Z" fill="#003580"/>
<path d="M16.264 14.6745H14.8191C14.4237 14.6745 14.0389 14.5119 13.7633 14.2285L12.3185 12.743C12.103 12.5213 11.8339 12.3638 11.5365 12.2844V13.6654C11.5365 14.2218 11.0838 14.6745 10.5274 14.6745C9.23718 14.6745 7.96226 14.2428 6.93746 13.459C6.5498 13.1625 6.18007 12.8355 5.83855 12.4872C5.68753 12.3332 5.06963 11.4922 5.22369 11.3411C5.37779 11.1901 4.60742 9.53543 4.75843 9.68941C5.58691 11.3968 7.05382 12.5644 7.4121 12.8384C8.30144 13.5186 9.40781 13.8932 10.5274 13.8932C10.6531 13.8932 10.7553 13.791 10.7553 13.6654V12.2058C10.7553 11.9868 10.8532 11.7824 11.0239 11.6451C11.1946 11.5078 11.4153 11.4561 11.6291 11.503C12.106 11.6077 12.5381 11.8482 12.8786 12.1982L14.3234 13.6838C14.4528 13.8169 14.6335 13.8932 14.8191 13.8932H16.264C16.2731 13.8932 16.3009 13.8932 16.319 13.861C16.337 13.8288 16.3225 13.805 16.3178 13.7973L16.1196 13.4735C15.7677 12.8987 15.3418 12.3716 14.8537 11.9069L14.191 11.2759C13.8458 10.9471 13.7939 10.4252 14.0678 10.0349L14.9727 8.74551C15.0851 8.58527 15.1889 8.41656 15.2811 8.24402L16.0543 6.7973C16.057 6.79227 16.0611 6.78469 16.0537 6.77238C16.0464 6.76012 16.0377 6.76008 16.032 6.76008L14.3584 6.75816C14.3178 6.75816 14.2809 6.78215 14.2646 6.81934L14.0874 7.22324C13.5904 8.35547 12.9086 9.38602 12.0609 10.2863C12.005 10.3456 11.9391 10.3928 11.8649 10.4266L11.7038 10.5002C11.4953 10.5954 11.2558 10.5782 11.0631 10.4543C10.8703 10.3304 10.7552 10.1196 10.7552 9.89043V6.75781H8.53511L8.61531 6.86945C8.87378 7.22949 9.01046 7.65414 9.01046 8.09746V10.5436C9.01046 10.8224 8.84249 11.0679 8.58257 11.1688C8.32296 11.2698 8.03374 11.2021 7.84578 10.9968C7.50265 10.622 7.00816 10.0246 6.60058 9.30758C6.10382 8.43371 5.75226 7.42875 5.58691 6.90754C5.55851 6.81797 5.47636 6.75781 5.38249 6.75781H3.71902L4.02663 7.84965C4.20578 8.48547 4.45199 9.10445 4.75843 9.68941C4.85855 9.88051 5.41482 11.241 5.22369 11.3411C5.03252 11.4413 5.98505 12.7253 5.88497 12.5342C4 11 3.46843 8.74941 3.27464 8.06148L2.95843 6.93922C2.89355 6.70887 2.93921 6.46738 3.08363 6.27664C3.22816 6.08594 3.44816 5.97656 3.68738 5.97656H5.38245C5.81835 5.97656 6.19976 6.25578 6.3316 6.67133C6.48765 7.16332 6.81835 8.10984 7.27972 8.92156C7.58101 9.4516 7.93691 9.91262 8.22921 10.2521V8.09746C8.22921 7.81863 8.14328 7.55156 7.98066 7.32512L7.8148 7.09406C7.72816 6.97344 7.68234 6.83105 7.68234 6.68242C7.68234 6.2932 7.99894 5.97656 8.38816 5.97656H10.7585C11.1875 5.97656 11.5365 6.32559 11.5365 6.75457V9.70328C12.3023 8.87945 12.9197 7.93984 13.3719 6.90934L13.5492 6.50543C13.6901 6.18434 14.0077 5.97695 14.3583 5.97695H14.3593L16.0329 5.97887C16.3188 5.97918 16.5772 6.12586 16.724 6.37113C16.8709 6.61645 16.878 6.91344 16.7433 7.16555L15.9701 8.6123C15.863 8.81254 15.7427 9.00836 15.6121 9.1943L14.7073 10.4837C14.6573 10.5549 14.6668 10.6501 14.7298 10.7101L15.3925 11.3411C15.9296 11.8527 16.3985 12.4329 16.7858 13.0655L16.984 13.3893C17.1434 13.6496 17.1497 13.9766 17.0005 14.2429C16.8514 14.5091 16.5692 14.6745 16.264 14.6745Z" fill="white"/>
<path d="M5.15388 11.4602C5.03224 11.4602 4.91236 11.4036 4.83607 11.2972L5.15353 11.0696L4.83439 11.2949C4.83424 11.2947 4.83189 11.2914 4.83174 11.2911C4.70603 11.1158 4.74627 10.8718 4.92158 10.7461C5.09693 10.6203 5.34092 10.6606 5.46666 10.8359L5.47099 10.842C5.5967 11.0173 5.55646 11.2613 5.38115 11.387C5.3122 11.4364 5.23263 11.4602 5.15388 11.4602Z" fill="white"/>
</g>
<defs>
<clipPath id="clip0">
<rect width="20" height="20" fill="white"/>
</clipPath>
</defs>
</svg>
