<svg width="20" height="20" viewBox="0 0 20 20" fill="none" xmlns="http://www.w3.org/2000/svg">
<g clip-path="url(#clip0)">
<path d="M10.1031 4.73438C7.26411 4.73438 4.96436 7.01828 4.96436 9.84143C4.96436 10.9517 5.32914 11.9985 5.9477 12.8391L5.29742 14.7423L7.27998 14.1079C8.08886 14.6471 9.0722 14.9485 10.119 14.9485C12.958 14.9485 15.2736 12.6646 15.2736 9.84143C15.2578 7.01828 12.9421 4.73438 10.1031 4.73438ZM13.1166 11.9509C12.9897 12.2998 12.3712 12.6329 12.1015 12.6646C11.8319 12.6963 11.8319 12.8866 10.2935 12.2998C8.77085 11.6971 7.80337 10.1586 7.72407 10.0476C7.64476 9.95246 7.10551 9.23874 7.10551 8.50916C7.10551 7.77958 7.48616 7.41479 7.6289 7.27204C7.77165 7.1293 7.93025 7.08172 8.02541 7.08172C8.12058 7.08172 8.2316 7.09758 8.3109 7.09758C8.40606 7.09758 8.51709 7.05 8.64397 7.35135C8.77085 7.65269 9.0722 8.38227 9.10392 8.46158C9.13564 8.54088 9.16736 8.62018 9.11978 8.71534C9.0722 8.81051 9.04048 8.87395 8.97704 8.96911C8.89774 9.04841 8.81843 9.15943 8.75499 9.22288C8.67569 9.30218 8.59639 9.38148 8.69155 9.52422C8.78671 9.66697 9.08806 10.1586 9.53215 10.5552C10.1031 11.0627 10.5948 11.2213 10.7375 11.3006C10.8803 11.3799 10.9754 11.364 11.0548 11.2689C11.1499 11.1737 11.4354 10.8406 11.5306 10.682C11.6257 10.5393 11.7367 10.5552 11.8636 10.6027C12.0064 10.6503 12.736 11.0151 12.8946 11.0944C13.0373 11.1737 13.1483 11.2054 13.18 11.2689C13.2276 11.3006 13.2276 11.6019 13.1166 11.9509Z" fill="#003580"/>
<path d="M15.4159 0.00785783H4.50004C2.00004 4.5335e-05 3.75733e-05 1.00005 3.75733e-05 4.50014L0 16C0 18.5 2 20 3.98101 20H16C18 20 20 18.5 20 15.916V4.50005C20 1.00005 18 4.5335e-05 15.4159 0.00785783ZM10.1031 15.916C9.02462 15.916 8.02542 15.6463 7.13723 15.1547L3.7431 16.2332L4.85333 12.9818C4.29821 12.0619 3.98101 10.9834 3.98101 9.84142C3.98101 6.47901 6.72486 3.76687 10.1031 3.76687C13.4814 3.76687 16.2253 6.47901 16.2253 9.84142C16.2253 13.2038 13.4814 15.916 10.1031 15.916Z" fill="#003580"/>
</g>
<defs>
<clipPath id="clip0">
<rect width="20" height="20" fill="white"/>
</clipPath>
</defs>
</svg>
